<?xml version="1.0" encoding="utf-8"?>
<!-- Generator: Adobe Illustrator 24.1.3, SVG Export Plug-In . SVG Version: 6.00 Build 0)  -->
<svg version="1.1" id="Слой_1" xmlns="http://www.w3.org/2000/svg" xmlns:xlink="http://www.w3.org/1999/xlink" x="0px" y="0px"
	 viewBox="0 0 36 27" style="enable-background:new 0 0 36 27;" xml:space="preserve">
<style type="text/css">
	.st0{fill:#1FFFD9;}
	.st1{fill:#000405;}
</style>
<path class="st0" d="M35.8,17.7C34.3,24.4,23,26.6,18.1,27c-3,0.2-10.4,0.7-15.1-4.4c-0.6-0.7-2.8-3.2-3-6.5
	C-0.3,8.9,9,0.9,18.3,1.1C28.2,1.4,37.4,10.8,35.8,17.7z"/>
<path class="st1" d="M6.4,13.9c0-0.1,0.4-0.2,1-0.4c1.2-0.3,4.2-1.1,7,0.5c1.4,0.8,2.3,1.9,2.2,2c-0.1,0.1-1.5-1.5-3.8-2.2
	C9.6,12.8,6.4,14,6.4,13.9z"/>
<path class="st1" d="M24.1,13.1c-2.1,1-3.3,2.7-3.2,2.8c0.1,0.1,1.8-2.1,4.8-3c2.8-0.9,5.1-0.2,5.1-0.3
	C30.8,12.6,27.3,11.5,24.1,13.1z"/>
</svg>
